HIERARCHY
ROOT hip
{
  OFFSET 0 0 0
  CHANNELS 6 Xposition Yposition Zposition Zrotation Yrotation Xrotation
  JOINT abdomen
  {
    OFFSET 0 20.6881 -0.73152
    CHANNELS 3 Zrotation Xrotation Yrotation
    JOINT chest
    {
      OFFSET 0 11.7043 -0.48768
      CHANNELS 3 Zrotation Xrotation Yrotation
      JOINT neck
      {
        OFFSET 0 22.1894 -2.19456
        CHANNELS 3 Zrotation Xrotation Yrotation
        JOINT head
        {
          OFFSET -0.24384 7.07133 1.2192
          CHANNELS 3 Zrotation Xrotation Yrotation
          JOINT leftEye
          {
            OFFSET 4.14528 8.04674 8.04672
            CHANNELS 3 Zrotation Xrotation Yrotation
            End Site
            {
              OFFSET 1 0 0
            }
          }
          JOINT rightEye
          {
            OFFSET -3.6576 8.04674 8.04672
            CHANNELS 3 Zrotation Xrotation Yrotation
            End Site
            {
              OFFSET 1 0 0
            }
          }
        }
      }
      JOINT rCollar
      {
        OFFSET -2.68224 19.2634 -4.8768
        CHANNELS 3 Zrotation Xrotation Yrotation
        JOINT rShldr
        {
          OFFSET -8.77824 -1.95073 1.46304
          CHANNELS 3 Zrotation Xrotation Yrotation
          JOINT rForeArm
          {
            OFFSET -28.1742 -1.7115 0.48768
            CHANNELS 3 Zrotation Xrotation Yrotation
            JOINT rHand
            {
              OFFSET -22.5879 0.773209 7.07136
              CHANNELS 3 Zrotation Xrotation Yrotation
              JOINT rThumb1
              {
                OFFSET -1.2192 -0.487915 3.41376
                CHANNELS 3 Zrotation Xrotation Yrotation
                JOINT rThumb2
                {
                  OFFSET -3.37035 -0.52449 3.41376
                  CHANNELS 3 Zrotation Xrotation Yrotation
                  End Site
                  {
                    OFFSET -1.78271 -1.18214 1.43049
                  }
                }
              }
              JOINT rIndex1
              {
                OFFSET -7.75947 0.938293 5.60832
                CHANNELS 3 Zrotation Xrotation Yrotation
                JOINT rIndex2
                {
                  OFFSET -2.54057 -0.884171 1.56538
                  CHANNELS 3 Zrotation Xrotation Yrotation
                  End Site
                  {
                    OFFSET -1.62519 -0.234802 1.16502
                  }
                }
              }
              JOINT rMid1
              {
                OFFSET -8.24714 1.18213 3.41376
                CHANNELS 3 Zrotation Xrotation Yrotation
                JOINT rMid2
                {
                  OFFSET -3.10165 -0.590103 1.0647
                  CHANNELS 3 Zrotation Xrotation Yrotation
                  End Site
                  {
                    OFFSET -2.48547 -0.328903 0.83742
                  }
                }
              }
              JOINT rRing1
              {
                OFFSET -8.82822 0.546677 1.51678
                CHANNELS 3 Zrotation Xrotation Yrotation
                JOINT rRing2
                {
                  OFFSET -2.60934 -0.819778 -0.0198488
                  CHANNELS 3 Zrotation Xrotation Yrotation
                  End Site
                  {
                    OFFSET -2.33842 -0.294052 0.168128
                  }
                }
              }
              JOINT rPinky1
              {
                OFFSET -8.27202 -0.0477905 -0.4584
                CHANNELS 3 Zrotation Xrotation Yrotation
                JOINT rPinky2
                {
                  OFFSET -1.82734 -0.647385 -0.700984
                  CHANNELS 3 Zrotation Xrotation Yrotation
                  End Site
                  {
                    OFFSET -1.69225 -0.51767 -0.607171
                  }
                }
              }
            }
          }
        }
      }
      JOINT lCollar
      {
        OFFSET 2.68224 19.2634 -4.8768
        CHANNELS 3 Zrotation Xrotation Yrotation
        JOINT lShldr
        {
          OFFSET 8.77824 -1.95073 1.46304
          CHANNELS 3 Zrotation Xrotation Yrotation
          JOINT lForeArm
          {
            OFFSET 28.1742 -1.7115 0.48768
            CHANNELS 3 Zrotation Xrotation Yrotation
            JOINT lHand
            {
              OFFSET 22.5879 0.773209 7.07136
              CHANNELS 3 Zrotation Xrotation Yrotation
              JOINT lThumb1
              {
                OFFSET 1.2192 -0.487915 3.41376
                CHANNELS 3 Zrotation Xrotation Yrotation
                JOINT lThumb2
                {
                  OFFSET 3.37035 -0.52449 3.41376
                  CHANNELS 3 Zrotation Xrotation Yrotation
                  End Site
                  {
                    OFFSET 1.78271 -1.18214 1.43049
                  }
                }
              }
              JOINT lIndex1
              {
                OFFSET 7.75947 0.938293 5.60832
                CHANNELS 3 Zrotation Xrotation Yrotation
                JOINT lIndex2
                {
                  OFFSET 2.54057 -0.884171 1.56538
                  CHANNELS 3 Zrotation Xrotation Yrotation
                  End Site
                  {
                    OFFSET 1.62519 -0.234802 1.16502
                  }
                }
              }
              JOINT lMid1
              {
                OFFSET 8.24714 1.18213 3.41376
                CHANNELS 3 Zrotation Xrotation Yrotation
                JOINT lMid2
                {
                  OFFSET 3.10165 -0.590103 1.0647
                  CHANNELS 3 Zrotation Xrotation Yrotation
                  End Site
                  {
                    OFFSET 2.48547 -0.328903 0.83742
                  }
                }
              }
              JOINT lRing1
              {
                OFFSET 8.82822 0.546677 1.51678
                CHANNELS 3 Zrotation Xrotation Yrotation
                JOINT lRing2
                {
                  OFFSET 2.60934 -0.819778 -0.0198488
                  CHANNELS 3 Zrotation Xrotation Yrotation
                  End Site
                  {
                    OFFSET 2.33842 -0.294052 0.168128
                  }
                }
              }
              JOINT lPinky1
              {
                OFFSET 8.27202 -0.0477905 -0.4584
                CHANNELS 3 Zrotation Xrotation Yrotation
                JOINT lPinky2
                {
                  OFFSET 1.82734 -0.647385 -0.700984
                  CHANNELS 3 Zrotation Xrotation Yrotation
                  End Site
                  {
                    OFFSET 1.69225 -0.51767 -0.607171
                  }
                }
              }
            }
          }
        }
      }
    }
  }
  JOINT rButtock
  {
    OFFSET -8.77824 4.35084 1.2192
    CHANNELS 3 Zrotation Xrotation Yrotation
    JOINT rThigh
    {
      OFFSET 0 -1.70687 -2.19456
      CHANNELS 3 Zrotation Xrotation Yrotation
      JOINT rShin
      {
        OFFSET 0 -36.8199 0.73152
        CHANNELS 3 Zrotation Xrotation Yrotation
        JOINT rFoot
        {
          OFFSET 0.73152 -45.1104 -5.12064
          CHANNELS 3 Zrotation Xrotation Yrotation
          End Site
          {
            OFFSET -1.1221 -3.69964 12.103
          }
        }
      }
    }
  }
  JOINT lButtock
  {
    OFFSET 8.77824 4.35084 1.2192
    CHANNELS 3 Zrotation Xrotation Yrotation
    JOINT lThigh
    {
      OFFSET 0 -1.70687 -2.19456
      CHANNELS 3 Zrotation Xrotation Yrotation
      JOINT lShin
      {
        OFFSET 0 -36.8199 0.73152
        CHANNELS 3 Zrotation Xrotation Yrotation
        JOINT lFoot
        {
          OFFSET -0.73152 -45.1104 -5.12064
          CHANNELS 3 Zrotation Xrotation Yrotation
          End Site
          {
            OFFSET 1.1221 -3.69964 12.103
          }
        }
      }
    }
  }
}
MOTION
Frames:	4
Frame Time:	0.00833333
7.49777 80.6901 23.9458 96.6428 -79.9118 -94.3244 3.58445 47.7812 -5.31468 4.0684 -10.9327 -1.30763 -2.83084 3.51507 0.726118 -13.3582 -8.15259 0.441897 -0.0 0.0 0.0 -0.0 0.0 0.0 2.72472e-13 -1.26802e-12 1.95147e-13 47.0858 -0.304959 22.3417 -28.0918 -31.3037 69.5551 -0.455474 18.8469 2.74973 -4.62237e-10 -1.17767e-10 -4.06789e-10 -8.04705e-10 -2.03352e-10 -6.95692e-10 -4.62232e-10 -1.17762e-10 -4.06794e-10 7.73091 5.47488 0.417314 -4.62235e-10 -1.17765e-10 -4.06786e-10 2.90554 0.965183 0.102902 -4.62228e-10 -1.17765e-10 -4.06793e-10 10.2786 0.731801 0.0259123 -4.6224e-10 -1.17766e-10 -4.06788e-10 2.22167 -0.733487 -0.20892 2.72366e-13 -1.26806e-12 1.94899e-13 -85.0481 20.9977 12.5343 21.3828 -14.8573 -42.1521 0.102976 -9.20613 1.30479 -3.48008e-09 1.34272e-09 -6.12428e-11 -6.01236e-09 2.30483e-09 -1.22499e-10 -3.48008e-09 1.3427e-09 -6.12262e-11 -7.73091 5.47488 -0.417314 -3.48008e-09 1.34272e-09 -6.12339e-11 -2.90554 0.965183 -0.102902 -3.48009e-09 1.3427e-09 -6.1233e-11 -10.2786 0.731801 -0.0259123 -3.48008e-09 1.34273e-09 -6.12376e-11 -2.22167 -0.733487 0.20892 -2.03217e-16 0.0 -3.88251e-19 -16.5054 -39.395 -3.51613 -1.13725 59.7053 1.19048 -4.99399 -15.2205 -9.46095 2.03217e-16 0.0 3.88251e-19 16.139 -21.754 -4.4773 0.33702 41.3571 -0.729223 0.992208 5.03864 7.22276
7.7434 80.4904 24.9269 97.2894 -79.9568 -94.9497 3.61729 47.9127 -4.99718 3.92593 -11.0084 -1.23492 -2.78796 3.37975 0.696411 -13.443 -7.92927 0.394693 -0.0 0.0 0.0 -0.0 0.0 0.0 3.43566e-13 -1.63668e-12 2.53401e-13 47.287 1.28908 23.0254 -27.9738 -30.4585 67.9808 -0.568141 20.9106 3.0781 1.7627e-10 7.41384e-10 -1.00767e-09 2.93271e-10 1.28e-09 -1.74135e-09 1.76275e-10 7.41391e-10 -1.00768e-09 7.73091 5.47488 0.417314 1.7627e-10 7.41388e-10 -1.00767e-09 2.90554 0.965183 0.102902 1.76279e-10 7.41388e-10 -1.00767e-09 10.2786 0.731801 0.0259123 1.76269e-10 7.41387e-10 -1.00767e-09 2.22167 -0.733487 -0.20892 3.43457e-13 -1.63671e-12 2.53103e-13 -85.1227 21.5593 12.1419 21.2814 -14.714 -41.8893 0.0813966 -8.11213 1.14784 -4.06725e-09 2.28461e-09 1.72971e-10 -7.02968e-09 3.93485e-09 2.80767e-10 -4.06725e-09 2.28459e-09 1.7299e-10 -7.73091 5.47488 -0.417314 -4.06725e-09 2.28461e-09 1.72984e-10 -2.90554 0.965183 -0.102902 -4.06726e-09 2.28459e-09 1.72986e-10 -10.2786 0.731801 -0.0259123 -4.06725e-09 2.28461e-09 1.72981e-10 -2.22167 -0.733487 0.20892 -2.03217e-16 0.0 -3.88251e-19 -16.8791 -39.6063 -3.33098 -1.14744 59.8001 1.1828 -5.0372 -15.0431 -9.54181 2.03217e-16 0.0 3.88251e-19 16.5729 -21.2393 -4.90212 0.323097 40.724 -0.71239 0.92268 5.64335 7.2648
7.79726 80.3705 25.7442 101.238 -79.9985 -99.3133 3.55242 48.0797 -4.45398 3.86074 -11.1109 -1.10675 -2.68809 3.31534 0.646508 -13.5654 -7.82959 0.277605 -0.0 0.0 0.0 -0.0 0.0 0.0 3.45438e-13 -1.48319e-12 2.34116e-13 47.5091 2.71256 23.7066 -27.7779 -29.3048 65.9259 -0.69305 22.9647 3.41339 4.42991e-10 9.42572e-10 -1.04099e-09 7.54612e-10 1.62843e-09 -1.80344e-09 4.42996e-10 9.4258e-10 -1.04099e-09 7.73091 5.47488 0.417314 4.4299e-10 9.42576e-10 -1.04099e-09 2.90554 0.965183 0.102902 4.42999e-10 9.42576e-10 -1.04099e-09 10.2786 0.731801 0.0259123 4.4299e-10 9.42576e-10 -1.04099e-09 2.22167 -0.733487 -0.20892 3.45362e-13 -1.48321e-12 2.3382e-13 -85.2486 22.199 11.8061 21.2422 -14.6578 -41.7927 0.0642359 -7.17301 1.01364 -3.85556e-09 2.34934e-09 2.08831e-10 -6.66456e-09 4.04949e-09 3.44638e-10 -3.85556e-09 2.34932e-09 2.08849e-10 -7.73091 5.47488 -0.417314 -3.85555e-09 2.34934e-09 2.08843e-10 -2.90554 0.965183 -0.102902 -3.85556e-09 2.34932e-09 2.08845e-10 -10.2786 0.731801 -0.0259123 -3.85556e-09 2.34934e-09 2.0884e-10 -2.22167 -0.733487 0.20892 -2.03217e-16 0.0 -3.88251e-19 -17.0398 -39.87 -2.90592 -1.15884 59.9055 1.17475 -4.93521 -14.9792 -9.19614 2.03217e-16 0.0 3.88251e-19 17.1116 -20.6944 -5.2388 0.308468 40.0842 -0.700592 0.889597 5.98419 7.14454
8.00715 80.216 26.7552 103.167 -79.7528 -101.416 3.41131 48.2711 -3.7213 3.83646 -11.2387 -0.933535 -2.54522 3.29518 0.574406 -13.705 -7.81065 0.0973734 -0.0 0.0 0.0 -0.0 0.0 0.0 3.06943e-13 -1.01527e-12 1.67954e-13 47.7659 3.97643 24.3894 -27.4227 -27.7487 63.5177 -0.832263 25.0164 3.7591 5.13178e-10 7.46859e-10 -7.4786e-10 8.79815e-10 1.29233e-09 -1.30037e-09 5.13185e-10 7.46868e-10 -7.47868e-10 7.73091 5.47488 0.417314 5.13177e-10 7.46864e-10 -7.47863e-10 2.90554 0.965183 0.102902 5.13185e-10 7.46865e-10 -7.47864e-10 10.2786 0.731801 0.0259123 5.13178e-10 7.46865e-10 -7.47861e-10 2.22167 -0.733487 -0.20892 3.06924e-13 -1.01527e-12 1.6769e-13 -85.409 22.9214 11.5252 21.2591 -14.6818 -41.8359 0.0493226 -6.31859 0.891791 -3.12017e-09 1.83677e-09 9.6412e-11 -5.39278e-09 3.16713e-09 1.54723e-10 -3.12017e-09 1.83676e-09 9.64265e-11 -7.73091 5.47488 -0.417314 -3.12017e-09 1.83677e-09 9.64199e-11 -2.90554 0.965183 -0.102902 -3.12017e-09 1.83676e-09 9.64235e-11 -10.2786 0.731801 -0.0259123 -3.12017e-09 1.83677e-09 9.64175e-11 -2.22167 -0.733487 0.20892 -2.03217e-16 0.0 -3.88251e-19 -17.0088 -40.1635 -2.26782 -1.16981 59.9964 1.16476 -4.73809 -14.953 -8.58261 2.03217e-16 0.0 3.88251e-19 17.7189 -20.1219 -5.52101 0.292898 39.4213 -0.691855 0.881604 6.15901 6.88099
